<mxfile host="app.diagrams.net" modified="2024-07-08T00:37:25.938Z" agent="Mozilla/5.0 (Windows NT 10.0; Win64; x64) AppleWebKit/537.36 (KHTML, like Gecko) Chrome/126.0.0.0 Safari/537.36" etag="ME_dOyK5pSvN-tPBtvDw" version="24.6.4" type="github">
  <diagram name="Page-1" id="e7e014a7-5840-1c2e-5031-d8a46d1fe8dd">
    <mxGraphModel dx="1430" dy="757" grid="1" gridSize="10" guides="1" tooltips="1" connect="1" arrows="1" fold="1" page="1" pageScale="1" pageWidth="1169" pageHeight="826" background="none" math="0" shadow="0">
      <root>
        <mxCell id="0" />
        <mxCell id="1" parent="0" />
        <mxCell id="se07cLiCDisu67ip80GB-54" value="" style="whiteSpace=wrap;html=1;aspect=fixed;" vertex="1" parent="1">
          <mxGeometry x="370" y="250" width="330" height="330" as="geometry" />
        </mxCell>
        <mxCell id="se07cLiCDisu67ip80GB-41" value="Traveler" style="shape=umlActor;verticalLabelPosition=bottom;verticalAlign=top;html=1;" vertex="1" parent="1">
          <mxGeometry x="270" y="360" width="60" height="80" as="geometry" />
        </mxCell>
        <mxCell id="se07cLiCDisu67ip80GB-45" value="" style="ellipse;whiteSpace=wrap;html=1;" vertex="1" parent="1">
          <mxGeometry x="430" y="320" width="90" height="30" as="geometry" />
        </mxCell>
        <mxCell id="se07cLiCDisu67ip80GB-46" value="BuyOneWayTicket" style="text;html=1;align=center;verticalAlign=middle;whiteSpace=wrap;rounded=0;" vertex="1" parent="1">
          <mxGeometry x="448" y="342" width="60" height="30" as="geometry" />
        </mxCell>
        <mxCell id="se07cLiCDisu67ip80GB-47" value="" style="ellipse;whiteSpace=wrap;html=1;" vertex="1" parent="1">
          <mxGeometry x="430" y="370" width="90" height="30" as="geometry" />
        </mxCell>
        <mxCell id="se07cLiCDisu67ip80GB-48" value="BuyWeeklyCard" style="text;html=1;align=center;verticalAlign=middle;whiteSpace=wrap;rounded=0;" vertex="1" parent="1">
          <mxGeometry x="447" y="392" width="60" height="30" as="geometry" />
        </mxCell>
        <mxCell id="se07cLiCDisu67ip80GB-49" value="" style="ellipse;whiteSpace=wrap;html=1;" vertex="1" parent="1">
          <mxGeometry x="430" y="422" width="90" height="30" as="geometry" />
        </mxCell>
        <mxCell id="se07cLiCDisu67ip80GB-50" value="BuyMonthlyCard" style="text;html=1;align=center;verticalAlign=middle;whiteSpace=wrap;rounded=0;" vertex="1" parent="1">
          <mxGeometry x="447" y="446" width="60" height="30" as="geometry" />
        </mxCell>
        <mxCell id="se07cLiCDisu67ip80GB-51" value="Central Computer System" style="shape=umlActor;verticalLabelPosition=bottom;verticalAlign=top;html=1;" vertex="1" parent="1">
          <mxGeometry x="770" y="361" width="60" height="78" as="geometry" />
        </mxCell>
        <mxCell id="se07cLiCDisu67ip80GB-52" value="" style="endArrow=none;html=1;rounded=0;" edge="1" parent="1">
          <mxGeometry width="50" height="50" relative="1" as="geometry">
            <mxPoint x="340" y="380" as="sourcePoint" />
            <mxPoint x="420" y="340" as="targetPoint" />
          </mxGeometry>
        </mxCell>
        <mxCell id="se07cLiCDisu67ip80GB-53" value="" style="endArrow=none;html=1;rounded=0;" edge="1" parent="1">
          <mxGeometry width="50" height="50" relative="1" as="geometry">
            <mxPoint x="340" y="400" as="sourcePoint" />
            <mxPoint x="420" y="390" as="targetPoint" />
          </mxGeometry>
        </mxCell>
        <mxCell id="se07cLiCDisu67ip80GB-55" value="Ticket Distributor" style="text;html=1;align=center;verticalAlign=middle;whiteSpace=wrap;rounded=0;" vertex="1" parent="1">
          <mxGeometry x="630" y="250" width="60" height="30" as="geometry" />
        </mxCell>
        <mxCell id="se07cLiCDisu67ip80GB-56" value="" style="endArrow=none;html=1;rounded=0;" edge="1" parent="1">
          <mxGeometry width="50" height="50" relative="1" as="geometry">
            <mxPoint x="340" y="430" as="sourcePoint" />
            <mxPoint x="420" y="437" as="targetPoint" />
          </mxGeometry>
        </mxCell>
        <mxCell id="se07cLiCDisu67ip80GB-58" value="" style="ellipse;whiteSpace=wrap;html=1;" vertex="1" parent="1">
          <mxGeometry x="400" y="530" width="90" height="30" as="geometry" />
        </mxCell>
        <mxCell id="se07cLiCDisu67ip80GB-59" value="UpdateTariff" style="text;html=1;align=center;verticalAlign=middle;whiteSpace=wrap;rounded=0;" vertex="1" parent="1">
          <mxGeometry x="415" y="550" width="60" height="30" as="geometry" />
        </mxCell>
        <mxCell id="se07cLiCDisu67ip80GB-60" value="" style="endArrow=none;html=1;rounded=0;entryX=0.091;entryY=0.848;entryDx=0;entryDy=0;entryPerimeter=0;" edge="1" parent="1" target="se07cLiCDisu67ip80GB-54">
          <mxGeometry width="50" height="50" relative="1" as="geometry">
            <mxPoint x="340" y="450" as="sourcePoint" />
            <mxPoint x="390" y="530" as="targetPoint" />
          </mxGeometry>
        </mxCell>
        <mxCell id="se07cLiCDisu67ip80GB-62" value="" style="endArrow=none;html=1;rounded=0;" edge="1" parent="1">
          <mxGeometry width="50" height="50" relative="1" as="geometry">
            <mxPoint x="500" y="549" as="sourcePoint" />
            <mxPoint x="760" y="439" as="targetPoint" />
          </mxGeometry>
        </mxCell>
        <mxCell id="se07cLiCDisu67ip80GB-63" value="" style="ellipse;whiteSpace=wrap;html=1;" vertex="1" parent="1">
          <mxGeometry x="395" y="270" width="90" height="30" as="geometry" />
        </mxCell>
        <mxCell id="se07cLiCDisu67ip80GB-64" value="" style="endArrow=none;html=1;rounded=0;" edge="1" parent="1">
          <mxGeometry width="50" height="50" relative="1" as="geometry">
            <mxPoint x="330" y="350" as="sourcePoint" />
            <mxPoint x="390" y="300" as="targetPoint" />
          </mxGeometry>
        </mxCell>
        <mxCell id="se07cLiCDisu67ip80GB-67" value="TimeOut" style="text;html=1;align=center;verticalAlign=middle;whiteSpace=wrap;rounded=0;" vertex="1" parent="1">
          <mxGeometry x="410" y="290" width="60" height="30" as="geometry" />
        </mxCell>
        <mxCell id="se07cLiCDisu67ip80GB-68" value="" style="endArrow=none;html=1;rounded=0;" edge="1" parent="1">
          <mxGeometry width="50" height="50" relative="1" as="geometry">
            <mxPoint x="500" y="290" as="sourcePoint" />
            <mxPoint x="760" y="410" as="targetPoint" />
          </mxGeometry>
        </mxCell>
        <mxCell id="se07cLiCDisu67ip80GB-69" value="" style="ellipse;whiteSpace=wrap;html=1;" vertex="1" parent="1">
          <mxGeometry x="570" y="530" width="90" height="30" as="geometry" />
        </mxCell>
        <mxCell id="se07cLiCDisu67ip80GB-71" value="" style="endArrow=none;html=1;rounded=0;" edge="1" parent="1">
          <mxGeometry width="50" height="50" relative="1" as="geometry">
            <mxPoint x="670" y="540" as="sourcePoint" />
            <mxPoint x="760" y="470" as="targetPoint" />
          </mxGeometry>
        </mxCell>
        <mxCell id="se07cLiCDisu67ip80GB-72" value="DistributorOutOfPaper" style="text;html=1;align=center;verticalAlign=middle;whiteSpace=wrap;rounded=0;" vertex="1" parent="1">
          <mxGeometry x="587" y="552" width="60" height="30" as="geometry" />
        </mxCell>
        <mxCell id="se07cLiCDisu67ip80GB-73" value="" style="ellipse;whiteSpace=wrap;html=1;" vertex="1" parent="1">
          <mxGeometry x="570" y="400" width="90" height="30" as="geometry" />
        </mxCell>
        <mxCell id="se07cLiCDisu67ip80GB-70" value="" style="endArrow=none;html=1;rounded=0;" edge="1" parent="1">
          <mxGeometry width="50" height="50" relative="1" as="geometry">
            <mxPoint x="670" y="420" as="sourcePoint" />
            <mxPoint x="760" y="420" as="targetPoint" />
          </mxGeometry>
        </mxCell>
        <mxCell id="se07cLiCDisu67ip80GB-74" value="DistributorOutOfChange" style="text;html=1;align=center;verticalAlign=middle;whiteSpace=wrap;rounded=0;" vertex="1" parent="1">
          <mxGeometry x="585" y="422" width="60" height="30" as="geometry" />
        </mxCell>
        <mxCell id="se07cLiCDisu67ip80GB-75" value="" style="ellipse;whiteSpace=wrap;html=1;" vertex="1" parent="1">
          <mxGeometry x="485" y="470" width="90" height="30" as="geometry" />
        </mxCell>
        <mxCell id="se07cLiCDisu67ip80GB-76" value="" style="endArrow=none;html=1;rounded=0;" edge="1" parent="1">
          <mxGeometry width="50" height="50" relative="1" as="geometry">
            <mxPoint x="350" y="450" as="sourcePoint" />
            <mxPoint x="480" y="480" as="targetPoint" />
          </mxGeometry>
        </mxCell>
        <mxCell id="se07cLiCDisu67ip80GB-77" value="" style="endArrow=none;html=1;rounded=0;" edge="1" parent="1">
          <mxGeometry width="50" height="50" relative="1" as="geometry">
            <mxPoint x="585" y="480" as="sourcePoint" />
            <mxPoint x="730" y="430" as="targetPoint" />
          </mxGeometry>
        </mxCell>
        <mxCell id="se07cLiCDisu67ip80GB-78" value="TransactionAborted" style="text;html=1;align=center;verticalAlign=middle;whiteSpace=wrap;rounded=0;" vertex="1" parent="1">
          <mxGeometry x="500" y="490" width="60" height="30" as="geometry" />
        </mxCell>
      </root>
    </mxGraphModel>
  </diagram>
</mxfile>
